<svg width="605" height="208" viewBox="0 0 605 208" fill="none" xmlns="http://www.w3.org/2000/svg">
<g filter="url(#filter0_i_8_277)">
<path fill-rule="evenodd" clip-rule="evenodd" d="M8.6849 172.685V207.135H284.72C301.414 207.135 315.648 201.249 327.421 189.476C339.29 177.606 345.225 163.373 345.225 146.775C345.225 130.081 339.29 115.847 327.421 104.074C315.648 92.2047 301.414 86.27 284.72 86.27H60.3601C53.2192 86.27 47.1397 83.7611 42.1218 78.7431C37.0073 73.6287 34.4501 67.501 34.4501 60.3601C34.4501 53.3157 37.0073 47.2362 42.1218 42.1218C47.1397 37.1038 53.2192 34.5949 60.3601 34.5949H489.808C491.759 39.5857 492.909 45.0903 492.909 50.3163C492.909 67.9584 479.034 81.3533 447.235 89.8477C432.203 80.0465 416.593 74.4925 399.827 74.4925C380.169 74.4925 369.185 81.0266 369.185 91.1545C369.185 100.956 376.701 111.41 395.78 126.765C425.844 150.942 468.627 176.098 529.333 207.135L562.866 189.493C517.192 167.604 471.518 143.427 439.719 122.192C499.269 107.816 539.162 88.8675 539.162 53.5834C539.162 46.5811 538.342 40.3895 536.458 34.5949H605V0H60.3601C43.7623 0 29.5287 5.93468 17.6593 17.8041C5.88643 29.5769 0 43.7623 0 60.3601C0 77.0544 5.88643 91.288 17.6593 103.061C29.5287 114.93 43.7623 120.865 60.3601 120.865H284.72C291.861 120.865 297.989 123.374 303.103 128.392C308.121 133.506 310.63 139.634 310.63 146.775C310.63 153.916 308.121 159.995 303.103 165.013C297.989 170.128 291.861 172.685 284.72 172.685H8.6849Z" fill="#140942"/>
</g>
<defs>
<filter id="filter0_i_8_277" x="0" y="0" width="609" height="211.135" filterUnits="userSpaceOnUse" color-interpolation-filters="sRGB">
<feFlood flood-opacity="0" result="BackgroundImageFix"/>
<feBlend mode="normal" in="SourceGraphic" in2="BackgroundImageFix" result="shape"/>
<feColorMatrix in="SourceAlpha" type="matrix" values="0 0 0 0 0 0 0 0 0 0 0 0 0 0 0 0 0 0 127 0" result="hardAlpha"/>
<feOffset dx="5" dy="4"/>
<feGaussianBlur stdDeviation="2"/>
<feComposite in2="hardAlpha" operator="arithmetic" k2="-1" k3="1"/>
<feColorMatrix type="matrix" values="0 0 0 0 0.106666 0 0 0 0 0.0418666 0 0 0 0 0.0418666 0 0 0 0.5 0"/>
<feBlend mode="normal" in2="shape" result="effect1_innerShadow_8_277"/>
</filter>
</defs>
</svg>
